<svg xmlns="http://www.w3.org/2000/svg" width="400" height="400" version="1.1" viewBox="0 0 1600 1600"><path fill="#FBFBFA" d="m0 0h1600v1600h-1600z" transform="translate(0)"/><path fill="#FFEA0B" d="m0 0h38l20 2 23 4 30 7 17 5 33 13 24 12 20 12 12 8 18 13 13 11 10 9 20 20 9 11 12 14 18 27 10 18 14 29 8 21 8 27 6 26 2 12 2 23v55l-4 31-5 25-6 21-9 24-10 23-15 28-10 16-10 14-12 14-8 10-16 17-10 9-11 9-12 10-20 14-27 16-22 11-23 9-21 7-34 8-27 5-16 1h-31l-26-2-36-6-28-7-28-10-17-7-22-12-15-8-20-14-10-8-13-10-12-11-7-7-7-6-7-8-10-10-8-10-12-16-7-10-3-5v-2l3 1 11 16 8 9-2-10v-6h2v-2l6-2 1-6 4-8 7-17 3-4 9 2-6-11-7-15 1-3 10 19 10 16 21 27 12 14 13 13 14 11 12 9 15 10 18 10 25 12 20 7 20 6 23 5 31 3h25l28-2 22-4 23-6 24-8 16-8 19-10 24-15 15-12 11-9 23-23 10-13 11-15 12-19 14-27 6-15 8-23 5-24 3-19 1-13v-44l-3-27-6-27-7-24-10-24-12-23-10-16-8-11-8-10-9-10-12-13-14-13-17-13-15-10-17-10-17-9-19-8-24-8-36-8-14-1-35-1-30 2-43 9-29 10-30 14-23 14-12 9-14 11-15 14-5 5h-2l-1 3-6 5-7 8-7 6-14 8-8 2h-21l-11-2-6-3-6-7 1-6 8-12 13-17 10-13 15-15 7-8 11-11 11-9 15-12 11-7 14-10 11-6 29-15 20-7 19-7 35-9 23-4z" transform="translate(1152,402)"/><path fill="#00DB7D" d="m0 0h19l25 2 32 5 27 7 27 9 27 12 22 12 15 9 15 10 12 9 11 9 1 2-3 8-3 9-7 10-3 8-3 12-2 3-7 1h-3l-13-11-14-10-15-10-29-15-18-8-25-8-16-4-25-5-19-2h-24l-26 2-21 3-23 5-26 8-19 8-16 8-17 10-21 14-17 14-9 9-8 7-13 14-11 14-10 15-9 15-8 16-9 21-8 24-6 24-4 26-1 13v33l3 31 6 26 6 20 7 19 12 26 9 16 14 20 9 11 11 13 15 15 11 9 13 10 15 10 17 10 19 10 20 8 21 7 37 8 27 3h29l27-2 39-9 26-9 20-9 22-11 11-8 9-6 11-9 13-11 5-6 5-4 7-8 9-8 5-5 7-6 15-8 16-2 16 1 10 3 8 6 1 10-10 13-20 25-13 15-10 11h-2l-2 4-8 7-10 10-11 8-24 16-13 8-14 8-21 10-31 12-29 8-29 6-22 3h-40l-32-3-29-5-33-10-27-10-29-14-23-13-10-7-14-10-16-13-13-11-12-11-11-12-9-11-10-12-9-13-10-16-12-21-13-27-9-25-8-29-5-31-3-24-1-15v-18l2-25 4-30 4-20 8-26 8-20 12-25 11-20 8-13 16-23 11-13 8-10 11-11 7-8 11-10 14-11 15-11 20-13 16-9 23-12 27-10 24-8 26-6 40-6z" transform="translate(526,401)"/><path fill="#03B8F8" d="m0 0h11l14 3 12 5 11 8 10 10 9 15 5 13 2 19v59l35-1h30l15 3 12 5 12 7 10 10 10 16 5 12 1 5v21l-4 13-7 11-11 14-9 8-16 8-9 3-6 1h-52l-16-1-1 71-5 17-6 10-8 10-9 9-13 8-9 4-13 2-16-1-12-3-14-7-12-11-9-12-5-11-3-12-1-12-1-61h-67l-14-3-14-7-11-8-10-10-8-13-4-10-2-10v-18l3-11 8-16 11-13 13-9 17-8 5-1 19-1h51l3-1 1-69 3-12 5-12 10-14 10-9 17-9z" transform="translate(526,556)"/><path fill="#FFCE0B" d="m0 0h38l20 2 23 4 30 7 17 5 33 13 24 12 20 12 12 8 18 13 13 11 10 9 20 20 9 11 12 14 18 27 10 18 14 29 8 21 8 27 6 26 2 12 2 23v55h-1l-1-44-1-16-3-26-5-23-6-23-11-30-8-16-5-5-1-3h-2v-2h-2l-4-6h-3l-2 5-5 1-2-1-1 3 1 3-2 5-1 11 1 4-1 9-5 4-1 3v7l3 16v12h-2v6l1 4 4 1-1 12 4 6 2 12v19l1 11v27l-3 28-4 23-6 22-6 17-9 20h-2l2-6 7-17 8-23 5-24 3-19 1-13v-44l-3-27-6-27-7-24-10-24-12-23-10-16-8-11-8-10-9-10-12-13-14-13-17-13-15-10-17-10-17-9-19-8-24-8-36-8-14-1-35-1-30 2-43 9-29 10-30 14-23 14-12 9-14 11-15 14-5 5h-2l-1 3-6 5-7 8-7 6-14 8-8 2h-21l-11-2-6-3-6-7 1-6 8-12 13-17 10-13 15-15 7-8 11-11 11-9 15-12 11-7 14-10 11-6 29-15 20-7 19-7 35-9 23-4z" transform="translate(1152,402)"/><path fill="#01BEE9" d="m0 0h11l14 3 12 5 6 4-3 3 8 4 3 5 1 4 3 6v2l1 1-2 4h-2v7h-2l2 6 1 5-1 4-2 9-1-4-2 12-1 10h-2l-2 9h-2l-1 8h-3v7l-2 5-2 2-4 16-1 2h-2l-3 10-3 6-1 7-6 12-4 7-3 9v5l-2 5-4 14-4 9v11l-4 9-7 14-1 4v5l-4 4-2 7-4 6-2 5-4 3-2 8-2 1v-5l-3 6-1 1-1 8h-2l-1 7-1 11-3 7h-4v3l-3 1v-25l-2-1-1-3v30l1 9-2-3-2-17-1-61h-67l-14-3-14-7-11-8-10-10-8-13-4-10-2-10v-18l3-11 8-16 11-13 13-9 17-8 5-1 19-1h51l3-1 1-69 3-12 5-12 10-14 10-9 17-9z" transform="translate(526,556)"/><path fill="#00D3AB" d="m0 0 2 1 6 15 11 24 9 16 14 20 9 11 11 13 15 15 11 9 13 10 15 10 17 10 19 10 20 8 21 7 37 8 27 3h29l27-2 39-9 26-9 20-9 22-11 11-8 9-6 11-9 13-11 5-6 5-4 7-8 9-8 5-5 7-6 15-8 16-2 16 1 10 3 8 6 1 10-10 13-20 25-13 15-10 11h-2l-2 4-8 7-10 10-11 8-24 16-13 8-14 8-21 10-31 12-29 8-29 6-22 3h-40l-32-3-29-5-33-10-27-10-29-14-23-13-10-7-14-10-16-13-13-11-12-11-11-12-9-11-10-12-9-13-6-9v-2h2l7 10 8 6 8 7 7 5 4 2 3 2v-3l-1-7 4-10 2-9v-2l6-1 2-6 2-3-5-11-4-8-4-7-3-5-3-9-1-4-5-16-4-11z" transform="translate(263,850)"/><path fill="#8206E1" d="m0 0 4 1 16 15 16 16 7 8 12 14 15 20 8 13 10 18 8 16 8 19 7 23 8 43 3 22 4 37 7 50 8 40 10 28 3 8 1 5 8 16 3 5v3l-7-1-2-1-2 4-7 17-5 11-1 3-6 2-1 8 2 11-7-6-13-18-1-2h-3l-8-15-9-19-6-15-8-25-8-29-9-58-8-58-3-22-8-36-9-27-10-21-10-16-9-14-11-14-15-16-10-10 1-3 7-1 3-8 2-9 3-6 6-9 3-9z" transform="translate(758,487)"/><path fill="#FFB009" d="m0 0 3 3 8 16 10 16 21 27 12 14 13 13 14 11 12 9 15 10 18 10 25 12 20 7 20 6 23 5 31 3h25l28-2 22-4 23-6 3 1v2h-3l2 3-1 4-4 6h2l4 10 1 1 1 10-3 5-4 5-4 9v8l-1 2-40 8-16 1h-31l-26-2-36-6-28-7-28-10-17-7-22-12-15-8-20-14-10-8-13-10-12-11-7-7-7-6-7-8-10-10-8-10-12-16-7-10-3-5v-2l3 1 11 16 8 9-2-10v-6h2v-2l6-2 1-6 4-8 7-17 3-4 9 2-6-11-7-15z" transform="translate(911,878)"/><path fill="#00D3AB" d="m0 0h19l25 2 32 5 27 7 27 9 27 12 22 12 15 9 15 10 12 9 11 9 1 2-3 8-3 9-7 10-3 8-3 12-2 3-7 1h-3l-13-11-14-10-15-10-29-15-18-8-25-8-16-4-25-5-19-2h-24l-26 2-21 3-23 5-26 8-19 8-16 8-7 4-3-1 16-9 5-2 2-6h2l1-4-10-1 1-4-2-2v-3l-2-1 5-6v-8l1-3h-5v-4l-4 1-3-3-4 2v-2l-5 2v-3l-4-1-2-3h-3l-1 2-16 8-13 8h-2v-2l20-12 27-14 27-10 24-8 26-6 40-6z" transform="translate(526,401)"/><path fill="#B02B9F" d="m0 0h26l-3 1-3 11 1 11-5 10-5 9-5 6-3 3-4 8 14 1-4 2-17 2-37 8-29 10-30 14-23 14-12 9-14 11-15 14-5 5h-2l-1 3-6 5-7 8-7 6-14 8-8 2h-21l-11-2-6-3-6-7 1-6 8-12 13-17 10-13 15-15 7-8 11-11 11-9 15-12 11-7 14-10 11-6 29-15 20-7 19-7 35-9 23-4z" transform="translate(1135,404)"/><path fill="#8206E1" d="m0 0 16 1 10 3 8 6 1 10-10 13-20 25-13 15-10 11h-2l-2 4-8 7-10 10-11 8-24 16-13 8-14 8-21 10-31 12-29 8-13 3-13 1-4 1h-9l4-2 3-2h3v-2h2l2-5 2-13 3-6 4-16 3-8-1-3-8-5 3-2h3v-2l21-5 23-8 20-9 22-11 11-8 9-6 11-9 13-11 5-6 5-4 7-8 9-8 5-5 7-6 15-8z" transform="translate(796,919)"/><path fill="#FF8E08" d="m0 0h14l14 4 16 8 9 6 8 9 8 13 5 14 2 11-1 16-5 15-4 8-9 12-8 8-14 8-12 5-9 1h-16l-14-3-16-8-15-14-7-9-5-12-3-6-1-4v-25l3-10 9-16 8-9 5-5 15-10 16-6z" transform="translate(1165,816)"/><path fill="#FFB009" d="m0 0h20l19 5 11 6 10 8 9 11 8 16 3 11 1 17-3 16-10 19-13 14-11 7-13 5-15 3h-9l-15-3-16-8-9-6-9-9-9-15-6-15-1-4v-19l5-15 7-13 8-10 7-6 10-7 16-7z" transform="translate(1289,687)"/><path fill="#FE7609" d="m0 0h18l12 3 10 4 13 9 8 9 8 13 6 16 1 4v21l-3 12-6 12-9 12-9 9-14 8-19 6h-17l-16-4-11-6-10-8-5-5-10-14-6-12-2-6-1-8v-14l3-12 8-17 9-12 13-10 10-6 11-3z" transform="translate(1164,557)"/><path fill="#D14B59" d="m0 0h17l17 4 14 7 10 8 10 12 8 16 5 19v10l-4 13-6 12-8 11-10 10-14 9-12 5-11 2h-9l-17-3-14-7-13-10-7-7-9-14-4-11-2-9v-18l5-15 9-16 11-12 14-9 11-5z" transform="translate(1031,687)"/><path fill="#FFE90B" d="m0 0h23l8 5 3 6 1 5v27l20-3h12l14 4 12 7 10 10 6 10 5 17 1 10v18l-3 13-7 13-9 10-8 7-13 6-10 3h-23l-14-3-14-6-10-8-5-6-2-8v-115l2-20z" transform="translate(1150,1264)"/><path fill="#A712BD" d="m0 0 2 2 8 43 3 22 4 37 7 50 8 40 10 28 3 8 1 5 8 16 3 5v3l-7-1-2-1-2 4-7 17-5 11-1 3-6 2-1 8 2 11-7-6-13-18-1-2h-3l-8-15-9-19-6-15-8-25-8-29-9-58-1-8v-19h2l4 5 2 10 3 1 3-1 1-7 4-9 4-6 2-8 4-10 2-13 4-11 2-7 3-11v-20l3-7 1-4z" transform="translate(867,648)"/><path fill="#8108E1" d="m0 0h9l7 2 8 7 3 7 1 7 1 32 1 5 4 1h42v-52l4-6 5-3h13l10 4 6 5 1 6v134l-7 8-4 1h-9l-10-3-5-5-3-5-1-4v-46h-49l-1 52-3 6-8 3h-13l-5-3-3-3-3-12-3-37-2-30v-43l2-19 3-5 5-3z" transform="translate(846,1274)"/><path fill="#FE8E08" d="m0 0h38l20 2 23 4 30 7 17 5 33 13 24 12 20 12 12 8 7 5v2l-4-2-15-9-13-2-5 1-2 5 1 3-2 10-4 6-6 6h-2v2h2l1 11-3 4 4 2 2 2-5-1-17-10-17-9-19-8-24-8-36-8-14-1-35-1h-15l-15-1 6-12 5-5 5-7 5-12 1-4-1-9 1-5h2l1-5h-13l-3-2z" transform="translate(1152,402)"/><path fill="#00D3AB" d="m0 0v3l-3 1v2h-7l-3 9v3l-4 7 1 2-1 3h-2l-1 7-2 2v10l-3 1-2 11-5 12-2 7-3 4-1 6-1 3 2 1-2 4h2l-2 6-5 7 3-1 3 2v4l-1 4 2 1-3 3-2 6-4 3 1 2-2 1 48 1-1 2h-67l-14-3-14-7-11-8-10-10-8-13-4-10-2-10v-18l3-11 8-16 11-13 13-9 17-8 5-1 19-1h51z" transform="translate(463,685)"/><path fill="#FE7709" d="m0 0 3 3 8 16 10 16 21 27 12 14 13 13 14 11 12 9 15 10 18 10 25 12 1 3 3 1v2l5-1-1 6-9 1-5 5-2 5-1 6-8 7-10 5-1 5 1 2v7l-8-1-28-15-14-8-17-12-10-8-13-10-12-11-7-7-7-6-7-8-10-10-8-10-12-16-7-10-3-5v-2l3 1 11 16 8 9-2-10v-6h2v-2l6-2 1-6 4-8 7-17 3-4 9 2-6-11-7-15z" transform="translate(911,878)"/><path fill="#376CFD" d="m0 0h30l15 3 12 5 12 7 10 10 10 16 5 12 1 5v21l-4 13-7 11-11 14-9 8-16 8-9 3-6 1h-52l-9-1v-3l10-4 3-4 2-12 1-2 3-47 3-12 4-11 5-14 1-9 6-8-1-5-7-2-15-1v-1z" transform="translate(635,687)"/><path fill="#0E9CFE" d="m0 0h1v16h2v3h22l15 1 7 2 2 4-2 5-4 5-2 13-5 14-4 10-2 9-3 47-2 8-2 7-4 5-9 3v2h-7l-1 71-5 17-6 10-8 10-9 9-13 8-9 4-13 2-16-1-2-1 1-3h16l10-2 5-3 3-6v-5l-5-2-1-5-1-3v-15l4-28 5-19 5-18 6-17 3-16 1-11 13-52 10-30 5-10 2-5v-9l-5-5z" transform="translate(597,669)"/><path fill="#4A4DF8" d="m0 0h19l10 3 4 4 1 3 1 26v49l5-5 5-4 9-11 11-12 5-5 6-4 3-1h10l6 4 6 9v8l-5 10-14 14-8 7-3 5v6l5 7 2 1v2l4 2 14 14 6 7 3 6v10l-3 7-8 4h-14l-8-5-8-7-13-18-6-6v-2l-4-2-5-3v33l-2 7-3 3-9 2-12-1-6-4-4-5-2-13v-137l1-7z" transform="translate(696,1264)"/><path fill="#03B8F7" d="m0 0 8 1 21 7 37 8 27 3h29l27-2 17-4 4 1-4 2 7 5 1 4-5 13-3 13-2 3-2 13-3 5h-2v2l-6 3 16-1v1l-23 4-9 1h-40l-32-3-29-5-33-10-27-10-1-4 13 1 3-7 8-5 7-7 1-3v-3l3-5-1-2 2-6-3-6-3-2-1-3z" transform="translate(427,1021)"/><path fill="#FFB009" d="m0 0h12l8 3 6 4 2 10 1 48 2 20 2 7 13 2h7l9-1v-54l1-26 2-10 7-3h16l7 3 5 5 2 9 1 24v55l-3 7-6 8-9 8-11 5-8 2h-31l-13-3-12-6-8-7-7-11-4-11-2-11v-50l1-19 3-6z" transform="translate(1010,1306)"/><path fill="#00CAC5" d="m0 0h20l13 3 14 7 10 9 6 9 3 6 1 4v68l-1 12-3 6-4 3-8 1-12-2-5-3-3-5-2-11-1-61-2-10-7-2h-22l-2 1-1 3-1 82-4 6-4 2h-15l-8-4-5-6-3-10-1-22v-23l1-31 3-8 6-7 12-9 15-6z" transform="translate(591,1303)"/><path fill="#02B8F7" d="m0 0h7l30 9 25 10 16 8 19 10 15 9 15 10 12 9 11 9 1 2-3 8-3 9-7 10-3 8-3 12-2 3-7 1h-3l-13-11-14-10-15-10-29-15-18-8-25-8-16-4-13-3-2-2 1-3h9l1-2h2l1-4 3-4 2-7 2-4 3-3 2-5 3-6 3-5 2-2-11-5-2-5z" transform="translate(608,411)"/><path fill="#05C7D0" d="m0 0h11l14 3 12 5 6 4-3 2-4-2-14-6-12-1-12 3-8 3-12 3-5 5-2 6-1 7v3l-3 8v10l1 5-1 3v28l1 10-4 24-4 13-2 16-1 5-3 32-7 33-1 10-4 19v10l-1 4-1 43v18l1 14 1 9-2-3-2-17v-63h-49l2-5 3-4h2l1-5 2-2-1-3 1-2-2-1 2-3-6-1 5-10 2-3h-2l1-4-1-4 2-7 3-5 3-10 4-11 2-7 2-1v-10l2-2 2-7h2l-1-5 5-8-1-2 4-9h7v-2h-22v-1l25-1 1-71 3-12 5-12 10-14 10-9 17-9z" transform="translate(526,556)"/><path fill="#00DB7D" d="m0 0 8 1 6 4 7 7 5 13 3 20h20l8 4 9 9 4 10-2 6-4 6-7 7-7 3-21 2-2 7-1 13-4 11-8 8-6 3h-8l-10-5-5-5-3-4-2-9-2-17-3-2-18-2-8-4-8-9-3-7v-8l5-10 8-6 3-1 22-2 3-3 1-17 2-9 7-8 8-5z" transform="translate(378,258)"/><path fill="#09E926" d="m0 0h9l8 4 6 7 5 12 2 18 1 1 15 2 12 5 8 6 6 8 1 6-3 6-4 5-11 7-8 2-18 1-1 23-3 7-7 8-7 4-9 1-8-3-6-5-4-10-3-23-18-4-15-6-5-4-4-7v-14l3-5 8-6 6-2h23l4-4 1-17 4-13 7-8z" transform="translate(141,397)"/><path fill="#09E928" d="m0 0h10l8 5 5 6 4 11 3 20 22 4 10 5 6 7 3 6v7l-6 9-10 8-8 2-17 2-1 1-1 19-3 8-7 8-9 5h-8l-9-5-6-7-3-9-3-19-3-2-19-2-10-7-6-7-2-5v-12l4-6 5-4 6-3 5-1 21-1 2-1 1-21 4-10 8-9z" transform="translate(141,159)"/><path fill="#0AEA26" d="m0 0h10l12 6 6 7 2 8 1 102 39 1 12 2 4 3 2 9-1 11-7 6-5 1h-60l-11-2-8-5-5-10-1-7-1-74v-49l3-5z" transform="translate(353,1273)"/><path fill="#FE8108" d="m0 0h18l12 3 10 4 13 9 8 9 8 13 6 16 1 4v21l-3 12-6 12-9 12-9 9-14 8-19 6h-17l-16-4-11-6-5-5 6-2 2-1 4 1 5-4 6-2 3-3 9-3 3-2 5-6 1-7 3-3 3-7 4-3 1-13v-9l1-5 1-6 2-9-1-4-3-1 1-4 2-2v-2l-5-2-2-1v-2l-6-1-7-3v-2h-2l2-4 4-4-1-4h-15l-11 3-3 2-1-2 9-4z" transform="translate(1164,557)"/><path fill="#FFCE0B" d="m0 0 1 3-8 16-12 19-2 4h-2l-2 5-3 4 1 4-2 6-3 3-1 2h-2v2h-2v2l-5 5-2 3h-2l-2 5-9 11-7 7h-2l-2 4-6 10-2 7-4 5-2 11-4 4-4 19-6 10-2 5 5 1 1 3 18-10 3 1-24 14-22 11-23 9-21 7-16 4h-5v-9l4-9 6-7 1-5-1-8-2-2-2-9h-2l2-4 2-3-1-6 1-2h2v-2l21-7 16-8 19-10 24-15 15-12 11-9 23-23 10-13 11-15 12-19z" transform="translate(1429,877)"/><path fill="#FFCD0B" d="m0 0h23l8 5 3 6 1 5v27l20-3h12l14 4 12 7 10 10 6 10-1 2-6-9-7-8-8-6-11-4-1 4-2 3-3 1-4 8-3 7 8 7 3 5 4 15 1 13-2 5h-1v-11l-3-16-4-9-6-5-4-1h-16l-7 2-1 58h-2l-1-7-5-1v2h-2l-1 4-1 3-6 1-3 4v17l7 4 10 4 14 2h27l-3 2-4 1h-23l-14-3-14-6-10-8-5-6-2-8v-115l2-20z" transform="translate(1150,1264)"/><path fill="#A713BD" d="m0 0 5 5-2 6-2 5v10 4l2 7 3 3 4 11 7 1-1 7-10 9-4 6-8 8h-2l-1 3-6 5-7 8-7 6-14 8-8 2h-21l-11-2-6-3-6-7 1-6 8-12 13-17 10-13 15-15 7-8 11-11 11-9 9-7z" transform="translate(968,471)"/><path fill="#C22F8F" d="m0 0h13l10 4 6 5 1 6v134l-7 8-4 1h-9l-10-3-5-5-3-5-1-4v-46h-50v-2l4-2 25-1 2-6h2v-2l-3 1v-9l5-4h3l1-3 9-2 3-4 1-43 3-11h2v-4z" transform="translate(931,1274)"/><path fill="#5D34F6" d="m0 0 2 1-4 5 3 1-1 5-2 5 1 13-2 5-1 9-3 10v3l3 6 3 1 1 5-2 4-17 8-31 12-29 8-13 3-13 1-4 1h-9l4-2 3-2h3v-2h2l2-5 2-13 3-6 4-16 3-8-1-3-8-5 3-2h3v-2l21-5 23-8 20-9 22-11z" transform="translate(692,993)"/><path fill="#01C3DE" d="m0 0 12 1 2 2-15 3-5 3h-2v7l3 5 1 4h-2l2 3 3 10h-2l2 6-2 3v21l-2 5-2 2-2 10-5 8-4 9-1 1-1 10-4 12-4 6-1 11-5 18-5 14-1 10-2 8-3 13-5 15-2 8-6 20-3 14-6 12-3 1v-17l1-2v-9l5-23 1-11 6-28 3-32v-5h2l1-16 4-13 4-25-1-9v-28l1-5-1-3v-10l3-7-1-2 2-4v-7l5-9 9-3 13-3 8-3z" transform="translate(536,560)"/><path fill="#C34479" d="m0 0 3 3 8 16 10 16 21 27 12 14 13 13 3 2v4l-2 1-3 6-2 5-1 8-2 8-4 4-2 1h-7v5l-4 3h-9l6 7 3 3-4-1-13-11-11-11-7-6-7-8-10-10-8-10-12-16-7-10-3-5v-2l3 1 11 16 8 9-2-10v-6h2v-2l6-2 1-6 4-8 7-17 3-4 9 2-6-11-7-15z" transform="translate(911,878)"/><path fill="#05C7D1" d="m0 0h45l18 1 29 5 4 2-6 2 2 4 10 4 2 2-3 3h-2l-2 4-2 5-3 7-3 3-2 3-2 7-4 7h-2l-1 3h-9v3l-11-1-19-2v-2l-38 1-2-6-2-9-4-15-1-7-3-2 3-6-2-1v-3l3-8 5-1v-2z" transform="translate(515,403)"/><path fill="#AF2D9F" d="m0 0h1l6 47 6 42 7 34 10 28 3 8 1 5 8 16 3 5v3l-7-1-2-1-2 4-7 17-5 11-1 3-6 2-1 8 2 11-7-6-13-18-1-2h-3l-8-15-9-19-6-15-4-12v-2h2l4 12 3 6h2l3-5 1-12h2l1-3 2-1 4-10 4-2 1-10 3-14v-22l1-10v-5l1-2v-7l2-11 2-2-1-22-2-20z" transform="translate(879,719)"/><path fill="#4A4DF8" d="m0 0 4 1 16 15 16 16 7 8 12 14 2 4 2 9v7l-5 6-6 21-4 12 1 20h-2v2l-6-1-4-3-1 2-9-17-18-27-9-11-14-15-10-10 1-3 7-1 3-8 2-9 3-6 6-9 3-9z" transform="translate(758,487)"/><path fill="#FFB009" d="m0 0 12 1 8 3 12 8 7 3 12 9 15 13 23 23 3 5-4-2-7-7-3 3-9-1-5 3h-2l-2 12-2 5-3-1-2 6-3 6v10l-1 2h-2l3 5 1 2-4-2-8-8-7-8-16-15-17-13-12-8-2-4-2-1 2-6v-9h-2v-2l8-7 4-8 1-9-1-3z" transform="translate(1341,458)"/><path fill="#4A4DF8" d="m0 0 6 1 9 7 7 7 10 16 5 12 1 5v21l-4 13-7 11-11 14-9 8-16 8-9 3h-16l5-8 2-4 2-6v-8l1-9 2-12 5-18 2-9 6-16 4-8 3-3 5-11 1-5z" transform="translate(692,697)"/><path fill="#FF8E08" d="m0 0 10 3 21 7 25 6 15 2v2l4 2 1 5-9 3-2 5 1 2h2l2 5v11l-6 5-5 6-5 3h-2l-1 4 1 3 5 2 7 1v1h-13l-25-5-16-4-31-11-9-4 2-1-2-11 2-4 13-7 4-4 2-10 5-6 2-1h9v-5h-4l-3-3z" transform="translate(1063,1020)"/><path fill="#D14C58" d="m0 0h26l-3 1-3 11 1 11-5 10-5 9-5 6-3 3-4 8 14 1-4 2-17 2-37 8-15 5h-7l-1-3 1-2-3-1v-5l7-10 5-13 1-10-2-3v-13-3l3-3 24-6 23-4z" transform="translate(1135,404)"/><path fill="#07ABFE" d="m0 0h1v10l5 4v9l-6 14-5 12-8 26-11 45-1 11-3 16-6 17-7 24-3 13-4 28v15l2 7 5 5-1 5-3 5-5 3-10 2h-8l-6-1 1-2 6-3h2l-1-10-4-13 1-21 2-14 4-15 8-27 8-25 10-37 7-26 6-25 6-12 8-12 8-10 1-14z" transform="translate(595,679)"/><path fill="#00BFE7" d="m0 0 5 1 10 7 20 12 19 10 14 6 1 6 4 2 3 7-2 6v3l-3 5v3l-2 4-3 3-9 6h-2l-2 8-11-1-3-1 1 3-9-3-24-12-20-12-9-6v-3l4-1-1-4 7-3 4-2v-1h9v-2l3-1v-8l-1-5v-12l2-6-6-7z" transform="translate(361,984)"/><path fill="#00DB7D" d="m0 0 10 1 12 4 5 4 3 7 1 5v81l-1 14-2 5h-2v2l-7 3h-7l-12-3-6-7-2-16-1-55v-23l1-16 2-4z" transform="translate(480,1305)"/><path fill="#F25F28" d="m0 0 12 8 6 8 7 14 5 19v10l-4 13-6 12-8 11-10 10-14 9-12 5-11 2h-9l-17-3-10-5 2-1 13 4 11 2h6l-2-1-1-8 3-6 6-10 4-8 3-8 4-11 4-9 2-12 1-10 4-13 3-8 6-12h2z" transform="translate(1082,704)"/><path fill="#02B9F5" d="m0 0h14l14 5 11 7 10 11 5 10 1 4v68l-1 12-3 6-4 3-8 1-12-2-5-3-3-5-2-11-1-61-2-10-1-2-5-1 2-12 3-7-1-7-1-4-11-1z" transform="translate(603,1304)"/><path fill="#01D2BD" d="m0 0h3l-2 7v3l-4 7 1 2-1 3h-2l-1 7-2 2v10l-3 1-2 11-5 12-2 7-3 4-1 6-1 3 2 1-2 4h2l-2 6-5 7 3-1 3 2v4l-1 4 2 1-3 3-2 6-4 3 1 2-2 1 48 1-1 2h-67l-14-3-14-7-3-8-1-4 2-2 9-2 2-4 5-6 8-3 6-4h2l2-4 6-9 2-4 3-14 1-1-1-22-1-6-1-4 2-7 5-6 12-6 20-4z" transform="translate(449,693)"/><path fill="#2C79FB" d="m0 0 4 1-4 2 7 5 1 4-5 13-3 13-2 3-2 13-3 5h-2v2l-6 3 16-1v1l-23 4-9 1h-40l-24-2-1-2 6-2 12-1 9-4 2-3 4-21v-10l2-9-4-4-16-3v-1l37-1 27-2z" transform="translate(593,1034)"/><path fill="#0D9DFB" d="m0 0h19l10 3 4 4 1 3 1 26v49 3l-1 1-2 11-7 9-9 10-5 4-12 2v20h-1v-137l1-7z" transform="translate(696,1264)"/><path fill="#FF9C0B" d="m0 0h4l5 5 8 13 5 14 2 11-1 16-5 15-4 8-9 12-8 8-14 8-12 5-9 1h-16l-14-3-14-7 2-1 6 2 5-5h10l2-2 8-2 8-5 3-2 8-5 4-4 4-2 7-8 4-8 1-6v-11l3-9v-10l-3-10-4-4-1-12 3-1 5 2 7-1z" transform="translate(1217,838)"/><path fill="#2C78FC" d="m0 0 5 2 12 7 15 10 12 9 11 9 1 2-3 8-3 9-7 10-3 8-3 12-2 3-7 1h-3l-13-11-14-10-15-10-8-5 3-2h2l1-6 1-8 3-9 9-12 4-6 1-1v-9z" transform="translate(703,448)"/><path fill="#FE8408" d="m0 0h12l8 3 6 4 2 10 1 48 2 20 2 7 6 1v2h-10l-9 1v3l-5 1-2-1-1 9-2 7-5-2-8-10-5-11-3-15v-50l1-19 3-6z" transform="translate(1010,1306)"/><path fill="#9709C2" d="m0 0 2 2 8 43 3 22v17l3 35v5h-2v-8l-2-1h2v-2l-3-1 1-2h-2l-3-7-2-7-3-3 1-7h-2l1-3-1-3-3-2-1-1-1 10v29 3l-2 4 1 5-2 7-3 3v5l-3 3-3 1-2 6-4 3h-2l-5-15-1-8h-3l-1 12-4 3-1 5h-1l-5-35v-19h2l4 5 2 10 3 1 3-1 1-7 4-9 4-6 2-8 4-10 2-13 4-11 2-7 3-11v-20l3-7 1-4z" transform="translate(867,648)"/><path fill="#1F89FB" d="m0 0h12l15 1 7 2 2 4-2 5-4 5-2 13-5 14-4 10-2 9-3 47-2 8-2 7-4 5-9 3v2h-7l-1 71-5 17-6 10-8 10-9 9-7 4-1-3h2v-2l9-5 3-3 5-9 3-5 4-15v-8l1-13 1-16 1-23 1-15 3-12 2-5v-11l2-7 6-37 5-17 4-9 6-15 3-13 2-2v-5l-7-3-19-1v-1z" transform="translate(610,688)"/><path fill="#E6553D" d="m0 0 8 1 12 5 13 9 4 4-1 3-7-6-3 1-1 4-4 8-3 8-4 13-2 18-4 12-4 8-3 11-4 7-6 11-3 5-1 3v7l3 1v1h-7l-18-4-6-2v-2h-2l-1-5 1-2h2v-2h2l2-4 4-4h2l1-3 3-3 7-14 3-7 4-9 3-9-2-1 3-13 1-15 2-8v-12h2l1-8 3-3z" transform="translate(1054,689)"/><path fill="#06D75B" d="m0 0h10l12 6 6 7 2 8 1 102 39 1 12 2 4 3 2 9-1 11-7 6-5 1h-60l-11-2-8-5-5-10-1-7-1-74v-49l3-5zm-2 3-6 3-1 2-1 27 1 61 1 26 1 10h2l2 4-1 8 6 5 5-3 3-1 2-6-1-9 4-4 1-5 7-1 3 1 1-2v-77l-1-24-2-7-6-3-9-5z" transform="translate(353,1273)"/><path fill="#00D29A" d="m0 0h19l25 2v1h-57v2l-16 1-12 2-6 3-7 3-6 1-2-1v2l-9 2-7 4-10 7-3 3-2 4-3-1 1 9 1 8 5 5v6l6 2 14-1h20l2 6-19 4-26 8-19 8-16 8-7 4-3-1 16-9 5-2 2-6h2l1-4-10-1 1-4-2-2v-3l-2-1 5-6v-8l1-3h-5v-4l-4 1-3-3-4 2v-2l-5 2v-3l-4-1-2-3h-3l-1 2-16 8-13 8h-2v-2l20-12 27-14 27-10 24-8 26-6 40-6z" transform="translate(526,401)"/><path fill="#4A4CF8" d="m0 0 2 1-1 1 3 2-1 11-4 11-7 16-4 15-4 9-5 3-1 2h6l-4 2-28 7-13 1-4 1h-9l4-2 3-2h3v-2h2l2-5 2-13 3-6 4-16 3-8-1-3-8-5 3-2h3v-2l21-5 23-8z" transform="translate(648,1017)"/><path fill="#2C78FC" d="m0 0h15l12 2 7 3 1 6-4 10-4 5-6 14-4 15v6l-3 5-2 17v13l-1 3-2 22-5 14-3 1-11 1h-9l-9-1v-3l10-4 3-4 2-12 1-2 3-47 3-12 4-11 5-14 1-9 6-8-1-5-7-2-15-1v-1z" transform="translate(635,687)"/><path fill="#FF9D0B" d="m0 0h16l7 3 5 5 1 3 1 41v35h-2v-13l-3-1-4-10-2-2-5 3-4 8-2 2-1 4-3 1v5l-3 4-1 3-5 4-7 2-10-1 3-2 9-1v-54l1-26 2-10z" transform="translate(1082,1306)"/><path fill="#B419B1" d="m0 0 2 1v3l-1 2h-2l-1 7-1 4-1 43-4 5-9 2-1 2-5 3-2 3v6h2v2h-2l-1 4-3 3-23 1-4 1v54l-3 6-8 3h-13l-5-3-3-3-3-12v-12l2-9 2-10 11-3 3-2h7l6-2v-11l1-7h2l2-14 1-4v-5l6 2h42v-52l4-6z" transform="translate(928,1275)"/><path fill="#DC4E54" d="m0 0h17l6 2 1 4-3 3-2 8h-2l1 6v6l-2 9-1 14-3 13 1 3-4 13-4 6-4 11-6 10-8 7-3 4h-2v2h-2v7l2 1-6-1-13-10-7-7-6-12 1-8h6l3 3v5l5-1 3 1 2-4 1 1 9 1 1-3h8v-2l4-1v-4l5-1-1-3 3-5v-7h-2l3-10 1-11-2-10-3-1 1-5h-3l-5-9-3-1-4-1h-3l-1-5 1-4 2-1 2-5h-4l4-3 11-4z" transform="translate(1031,687)"/><path fill="#E85F38" d="m0 0h1v110l-7 8-4 1h-9l-10-3-5-5-3-5-1-4v-28l1-18 2-3 10-1 11-8 5-5h2v-8l3-16 4-2z" transform="translate(960,1313)"/><path fill="#E6563D" d="m0 0 9 6 8 7 18 12 12 7v2h-8l-4 4-3 7-8 11-5 5-8 7h-3l-2 4-1 4 6 4-4 1-20-14-10-8-6-4-2-4-6-7 5-1 7-1 2-6 11-2 2-5 2-10 1-8 3-4 2-4h2z" transform="translate(981,970)"/><path fill="#00CAC6" d="m0 0 5 2v7l-1 3-1 24-2 14-2 1-3 9-3 6 1 8 1 5-3 8-2 7-6 11-4 11v2 5l15 4 5 2-1 3-19 1h-25l2-5 3-4h2l1-5 2-2-1-3 1-2-2-1 2-3-6-1 5-10 2-3h-2l1-4-1-4 2-7 3-5 3-10 4-11 2-7 2-1v-10l2-2 2-7h2l-1-5 5-8-1-2 4-9h7z" transform="translate(460,689)"/><path fill="#01BFE8" d="m0 0 17 2h8l1 4 1 3 10 4 2 2-3 3h-2l-2 4-2 5-3 7-3 3-2 3-2 7-4 7h-2l-1 3h-9v3l-11-1-3-2v-3l-11-1-8-4-3-3 1-10 5-16 7-12 5-4 7-3z" transform="translate(580,408)"/><path fill="#D14C58" d="m0 0 5 5 12 13 8 8 3 2v4l-2 1-3 6-2 5-1 8-2 8-4 4-2 1h-7v5l-4 3h-9l6 7 3 3-4-1-13-11-11-11-7-6-7-8-1-4 5-3h3l1-5 6-2 5 1 1-3h3v-2h2l-1-3 2-5 6-9 2-4 4-4z" transform="translate(953,941)"/><path fill="#FF9C0B" d="m0 0h9l43 3 1 3h-2l-1 3-6 4-5 2 1 6 4 6 1 8-5 8 3 2-5 4-1 2 1 1 1 2 6 2 1 4-3 1h-25l-30-2v-2l-6-3-1-4 4-4 8-6 4-5 3-2v-11l-1-5-3 1-1-4 3-5 8-2-1-5-5-1z" transform="translate(1132,1040)"/><path fill="#5E33F5" d="m0 0 8 6 8 8 9 11 3 5 2 9v7l-5 6-6 21-4 12 1 20h-2v2l-6-1-4-3-1 2-9-17-12-18-1-6 5 1 2-3 1-13 2-6v-7l2-3 2-6 2-2 2-13-1-8z" transform="translate(787,515)"/><path fill="#01D1BD" d="m0 0 8 6 11 10 10 7-2 3 6 8-2 5v12l1 5v8l-4 1v2l-8 1-2 2-8 3v4l-2 2-3-1v2l-4-2-11-8-11-9-1-4-5-10 4-3h7l4-7v-14l-1-7 7-8 7-3z" transform="translate(334,960)"/><path fill="#C54478" d="m0 0 4 1-3 3 1 1v10l-1 3 2 1 1 7-2 7-4 11-7 10v5l2 1v5l5-1-1 2-15 6-26 12-18 11v-3l9-6 2-3h2l1-4-2-4 3-3 5-10 2-9 1-1 1-8-1-8 1-4-1-2 1-6-8-4h-6l4-3 41-15z" transform="translate(1075,416)"/><path fill="#FFAF09" d="m0 0h23l8 5 3 6 1 5v27h9v1l-7 2-11 11-3 1-9 14-5 4-4 7-3 9-2 22-1 19-2 4v-115l2-20z" transform="translate(1150,1264)"/><path fill="#01D2AC" d="m0 0h20v2l3 1 3 7-1 7-2 4-1 9-2 3h5l1 2-7-1h-22l-2 1-1 3-1 82h-1v-80h-2v2l-5 1v-2l-7-2-6 4-3 4-8 32-3-1-2-11h-1l-1 19h-1v-23l1-31 3-8 6-7 12-9 15-6z" transform="translate(591,1303)"/><path fill="#FD6A16" d="m0 0h38l8 2 11 1-1 9-10 3-4 1-2 6-2 3h-4l-1 11-1 8-2 4 1 5-1 6 2 2-2 1-19 1h-15l-15-1 6-12 5-5 5-7 5-12 1-4-1-9 1-5h2l1-5h-13l-3-2z" transform="translate(1152,402)"/><path fill="#FCFCFB" d="m0 0h16l7 3 6 7 3 9 2 13-1 12-5 11-4 6-4 3-6 1h-14l-7-2-1-2v-58l2-2z" transform="translate(1193,1335)"/><path fill="#FE7609" d="m0 0h9l30 5 7 2 5 2 2 5-3 3-9 3-1 3v9l-5 10-13 9-9 6h-4v4h-21l-1-4 1-9v-3-2h2v-14l2-5h4l2-7h2v-2l10-4h4v-8l-14-2z" transform="translate(1194,403)"/><path fill="#06D755" d="m0 0 1 2-2 8h-2l-1 7-1 6h-2v5l-6 16-1 4-3 15-3 8-2 7-1 8-4 16-5 13-2 8-2 20-2 8-3 25-1 17v9l-3 14-2-1-2-14-1-15v-24l2-23 4-31 5-21 6-20 2-9 9-21 12-24 3-5 3-3z" transform="translate(236,575)"/><path fill="#FE8208" d="m0 0 10 3 21 7 5 1v2l2 1-3 7-9 3v6h-2l-1 7-4 6-7 6-6 3-1 4-2 2 2 6v2l-7-1-21-8-7-3 2-1-2-11 2-4 13-7 4-4 2-10 5-6 2-1h9v-5h-4l-3-3z" transform="translate(1063,1020)"/><path fill="#FF8E08" d="m0 0 4 5 5 11 4 13v21l-3 12-6 12-9 12-9 9-14 8-19 6h-17v-1l5-1-2-2-9-3v-2l9-3 5-3 10-1h7l8-2h3l1-5 8-10 5-5v-3l1-12 2-4 4-21 2-7 5-5 1-2 1-1v-3l-2-7-1-4z" transform="translate(1227,586)"/><path fill="#FF9C0B" d="m0 0 5 1 3 2 6 1 15 9 12 8 7 5v2l-4-2-15-9-13-2-5 1-2 5 1 3-2 10-4 6-6 6h-2v2h2l1 11-3 4 4 2 2 2-5-1-17-10-17-9-12-5 3-5h2l6-7 10-6h4l4-6 2-9 3-3 16-2v-2l-2-1z" transform="translate(1328,444)"/><path fill="#B319B1" d="m0 0 5 5-2 6-2 5v10 4l2 7 3 3 4 11 7 1-1 7-10 9-4 6-5 5h-2v-3l-5-2-1-2-5-1v-2l-3-3 1-5-5-1v-3l1-3h-2l-2-4-2-2v-4l-3-3 1-12 1-2-5 1 2-4 8-9 14-11z" transform="translate(968,471)"/><path fill="#FE8208" d="m0 0 11 2 26 7 6 3v3 4l-17-1-3 1 1 8 4 3v7l-3 4-6 1-8 3-10 4-11 2-5 4-1 3h-7l-5-1-14-1-28-1v-1l32-1 1-3 7-3 18-12 5-10v-9l3-5 10-2-1-7-5-1z" transform="translate(1240,410)"/><path fill="#8209E0" d="m0 0 7 4v2l4 2 14 14 6 7 3 6v10l-3 7-8 4h-14l-8-5-8-7-13-18-4-4v-3l8-1 9-8h2v-2l4-3z" transform="translate(767,1374)"/><path fill="#0D9DFB" d="m0 0h7l30 10 27 12 20 11v11l-4 5-9 13-3 6-2 7v7l-2 4h-2l-1 2-5-1-24-12-8-3v-3h11l6 1 3-1 3-10 5-12 4-8 1-4h2l-3-9-8-6-19-8-27-9v-2z" transform="translate(619,414)"/><path fill="#376CFD" d="m0 0 5 2 13 10 7 6-6 18-7 10-3 8-3 12-2 3-7 1h-3l-13-11-8-6 2-2 5-2v-7l6-9 2-5 7-11 3-6 3-2 1-5z" transform="translate(734,468)"/><path fill="#376CFC" d="m0 0 4 1-4 2 7 5 1 4-5 13-3 13-2 3-2 13-3 5h-2v2l-6 3 16-1v1l-23 4-9 1h-31l4-2 11-1 3-3 11-7 4-5 4-17 1-8 4-6v-7l-6-4-7-1v-2l21-3z" transform="translate(593,1034)"/><path fill="#C3308E" d="m0 0 9 4-1 8 1 3-1 6 1 5-1 7-2 5-3 9-5 8-1 2 2 4-7 8-8 5-5 5-8 6h-2l-1-3 2-4 3-9 2-1 1-5 3-3 5-9 3-5 1-7-2-1v-3l-4-1-3-3 1-3-1-2-3-1 1-8-1-2 3-7 13-7z" transform="translate(1029,435)"/><path fill="#05C7D0" d="m0 0 5 1 10 7 20 12 1 2-5 1v2l-4 2-2 15 2 5-1 5-13 2-3-1-1 3h-2l-1 9 5 6 4 2v2h2v2l4 1 3 2v2l4 1-3 1-25-13-13-8-9-6v-3l4-1-1-4 7-3 4-2v-1h9v-2l3-1v-8l-1-5v-12l2-6-6-7z" transform="translate(361,984)"/><path fill="#0D9DFC" d="m0 0h11l20 2v2l9 3 4 4-2 9v10l-4 21-5 5-7 3-12 1-6 2-14-1-12-3 1-3h22l5-4 3-10 2-8v-19l-1-4-5-2-5-3v-2h-3z" transform="translate(489,1038)"/><path fill="#B319B1" d="m0 0h2l-1 16-1 2v8l-1 11v17l-3 16-2 8-3 2-5 11-4 4-1 11-4 8-4-4-5-15v-2l-3-1-5-18v-5h2v-5l4-1 3-1 3 2 1-2 8-6 6-12h2l-1-3h2l1-12h2l-1-6 2-7 1-9 2-5z" transform="translate(878,779)"/><path fill="#E6563D" d="m0 0h13l-3 1-3 11 1 11-5 10-5 9-5 6-3 3-4 8 14 1-4 2-17 2-14 3-6-1-2-2 1-5 4-2 2-5 12-15 3-6 2-17 3-6h2l1-5z" transform="translate(1148,404)"/><path fill="#C22F90" d="m0 0 11 1 9 16v3l-7-1-2-1-2 4-7 17-5 11-1 3-6 2-1 8 2 11-7-6-13-18-1-2h-3l-6-11v-5l9 3 1-5 3 1 5-4h2l8-8 2-6h2l2-5 3-7z" transform="translate(904,887)"/><path fill="#FFCD0B" d="m0 0 3 2h4l4 4 3 7h1l2 16v12l-4 10-7 13-13 14-11 7-13 5-15 3h-9l-1-2 3-2 2-3 13-4 4-2 4-5 5-4 5-5 9-4 6-7 3 1-1-4 3-17 1-8v-16h-2l-2-5 2-5z" transform="translate(1351,732)"/><path fill="#00D29B" d="m0 0 3 3 3 10v81l-1 14-2 5h-2v2l-7 3h-7l-12-3-6-7-2-16-1-55v-23l1-13h1l1 76h2v2h2l1 2 1 13 4-3h2l2-5 10-5 1 2 2-7 3-3 2 1 1-34 1-7v-22z" transform="translate(505,1313)"/><path fill="#02B9F5" d="m0 0h19l-2 1v2h5l6 6 1 3v15l-3 14-3 7-10 8-9-1-3-4-1 3-1 40h-1v-86l1-7z" transform="translate(696,1264)"/><path fill="#01BEE8" d="m0 0h14l14 5 11 7 10 11 2 6-4 1-1 9-2 9-3 6-7 5-3-3v-2l-4 1v-2h-4v-2h-3l-3-6h-1l-2-10-1-2-5-1 2-12 3-7-1-7-1-4-11-1z" transform="translate(603,1304)"/><path fill="#920FC5" d="m0 0 2 4 1 32 1 5-1 4-4 18-2 7v12l-8 2h-6l-5 3-9 1-1 13-3 9h-1l-2-28v-36h2l3 5 2 6v2h5v-2l7-6 5-3h4v-2h3l2-6 1-6 1-7 2-5z" transform="translate(872,1293)"/><path fill="#00D2BD" d="m0 0h5l-2 6 1 4-2 6 3 2 3 14 3 12 1 5 2 5h37v1l-41 2-9 1h-13v-1l16-2v-2l-17-4-7-5-2-9-1-1v-14l2-10 5-5z" transform="translate(503,409)"/><path fill="#DD4F53" d="m0 0 4 1h3l5 4v4l-2 1-3 6-2 5-1 8-2 8-4 4-2 1h-7v5l-4 3h-9l6 7 3 3-4-1-13-11-11-11-7-6-3-7-2-4 3-1 7 6 2 1v2l9 1h2l5-1v-2h12l3-4 2-11h2l2-6 5-3z" transform="translate(969,964)"/><path fill="#00DB7F" d="m0 0h1l1 10 39 1 12 2 4 3 2 9-1 10h-1l-1-17-2 1-1 13-3 4-20 1h-12l-13-2-3-4 1-2h-2v-11l1-3-2-5z" transform="translate(382,1386)"/><path fill="#06D855" d="m0 0h7l8 3 7 8 3 8-1 9-6 8-6 5-4 1h-8l-8-4-5-7-3-10v-7l3-7 6-5z" transform="translate(487,1254)"/><path fill="#FC750B" d="m0 0h12l8 3 6 4 1 3v26h-1l-1-21-1-5v6l-2 1v-2h-2v-2h-7v23l-3 5-5 9-4 1-3 5-3 8-2 5h-2v-20l-1-7v-34l3-6z" transform="translate(1010,1306)"/><path fill="#DD4F53" d="m0 0h10l-3 2-7 2-1 4h-2l-1 5-1 1-2 17-6 10-11 14-4 5-1 4 3 3-5 2-17 4-4 1-2-1-1-5h3l-1-3h4v-2h3l1-5 4-2v-2l7-6h3v-2h2l2-5 3-6v-5l-2-4-4-2-3-5 4-7 3-3 5-2 4-2h3v-2l-2-1z" transform="translate(1135,404)"/><path fill="#00D29C" d="m0 0v3l-25 1-11 2-8 2-13 1-28 7-13 5-9 7-2 3-3 10-4 6-2 12h-2l2 28-3 8-4 1-4-13-1-5v-18l3-11 8-16 11-13 13-9 17-8 5-1 19-1h51z" transform="translate(463,685)"/><path fill="#F36127" d="m0 0 2 2 2 46h1v11l-7 8-4 1h-9l-10-3-5-5-2-4 2-1 3-19 5-8 11 1 8-7h2z" transform="translate(956,1364)"/><path fill="#F25F28" d="m0 0h38l8 2v1h-19l-1 4h-2v2l-4 4-3 12-2 15h-2l-1 5-3 7-2 7 15 1 5 1v1l-16 1h-15l-15-1 6-12 5-5 5-7 5-12 1-4-1-9 1-5h2l1-5h-13l-3-2z" transform="translate(1152,402)"/><path fill="#01C4DD" d="m0 0 9 3 6 3-2 1v12l-3 16-4 8-7 5h-2v2l-3 3v4h2l2 5 2 4-6-2v-2l-3-1-4-4-3-1v-2h-2l-1-2-4-2-5-6v-6l5-6 16-2-2-12 2-12 2-2h3v-2h2z" transform="translate(394 1e3)"/><path fill="#F26127" d="m0 0 4 1 14 9 7 4v2h-8l-4 4-3 7-8 11-5 5-8 7h-3l-2 4-1 4 6 4-4 1-20-14-2-6h9v-2l4-1 2-4 6-4 8-18 3-9 1-4z" transform="translate(1e3 988)"/><path fill="#0D9FF8" d="m0 0h1l2 10 1 17v35l1 2h5v2l10-2 3-3 6-12 2-3h2v-25l2-3h2v60l-3 6-4 3-8 1-12-2-5-3-3-5-2-11z" transform="translate(620,1343)"/><path fill="#06ADFA" d="m0 0h10l13 3-3 2v2h3v2l4 1 6 4 2 4v19l-2 8-3 10-6 5h-14l-8-1-1 3-10-1-30-9v-2h-2l1-3 5 2h3l11 2 17 4h13l7-2 2-16-1-12v-9l-5-5-10-6-6-3z" transform="translate(470,1034)"/><path fill="#05C7D0" d="m0 0h2v82l-5 5-2 1h-15l-8-4-5-6-3-10v-41h1l2 9 1 18 2 14 4 1 9 2 2-2 2-1-1-7 3-2 1-2h3l-1-3h2v-8l2-9 2-11z" transform="translate(581,1343)"/><path fill="#FE8408" d="m0 0 3 1-1 9-4 4h-2l-2 7-5 4-5-3-2 1 1 5 2 3-3 1-4 2v2l-9 6h-2l-1 5-2 5-1 9v9l4 12 2 9 1 8h2l-2 6-5-5-8-16-2-7v-25l3-10 9-16 8-9 5-5 15-10z" transform="translate(1147,821)"/><path fill="#1E8BFA" d="m0 0h26v1l9 2 5 4-1 6-2 3-1 16-3 13-3 6-6 5-10 2-1 1-27 1-1-2 6-2 12-1 9-4 2-3 4-21v-10l2-9-4-4-16-3z" transform="translate(512,1041)"/><path fill="#FD6A17" d="m0 0h2l1 8h2l4 10v4h2l1-3 1 5v10l-4 13-6 12-8 11-7 7-8-3v-2l-2-1 5-10h2l1-4 4-6 2-18h1l1-5h2v-15l1-10z" transform="translate(1099,729)"/><path fill="#FD6B16" d="m0 0h9l13 7-1 5h-2v2l-10 6-7 8-6 5-4 4h-2l-1 4-4 2-2 6 3 6-7-1-9-5 1-2-6-4 1-4 3-4 5-3 5-4 4-5 4-4 6-8 4-9z" transform="translate(1020 1e3)"/><path fill="#01C4DE" d="m0 0 13 2-2 3-7 1v2l-6 4-1 7-3 8-2 12-3 9 1 4 4 2-1 3h-3v-3l-11-1-8-4-3-3 1-10 5-16 7-12 5-4 7-3z" transform="translate(580,408)"/><path fill="#940EC3" d="m0 0 16 1 10 3 8 6 1 10-10 13-12 15-5 5 1-5 6-8-1-2 1-10-1-4v-2l-13-3-11-6-4-6h-7l-2 1 1-3 6-3z" transform="translate(796,919)"/><path fill="#AD2DA0" d="m0 0 2 1v3l-1 2h-2l-1 7-1 4-1 43-4 5-9 2-1 2-5 3-2 3v6h2v2h-2l-1 4-3 3-23 1-4 1 4-10 2-9-1-9-3-1v-5l6 2h42v-52l4-6z" transform="translate(928,1275)"/><path fill="#FF9E0B" d="m0 0 5 1 1 4-5 5-11 12-6 4-10 15-2 7-1 12 3 8 4 24 2 4-2 3-3-1-8-14-5-15v-19l5-15 7-13 8-10 7-6 6-4z" transform="translate(1269,696)"/><path fill="#00C9C6" d="m0 0h6l7 3v5l2 1v5l4 3-2 14 1 22 1 3h-2v2h-12l-2-6-2-9-4-15-1-7-3-2 3-6-2-1v-3l3-8z" transform="translate(511,406)"/><path fill="#FD6B17" d="m0 0h15l2 4-17 3-2-1-1 2h-3l-2 4h-3l-2 4-5 5-5 1-14 16-4 4-4 12-4 6-1 13 2 9 1 9 2 5h-3l-6-15-1-8v-14l3-12 8-17 9-12 13-10 5-3 5-1 7-3z" transform="translate(1157,559)"/><path fill="#1E8AFA" d="m0 0 5 2 10 6-1 8-5 6-8 12-2 2-4 13v8l-5 6-14-8-1-2 5-1 1-6 1-8 3-9 9-12 4-6 1-1v-9z" transform="translate(703,448)"/><path fill="#06ACFC" d="m0 0 5 1 17 7 9 7 2 4v5h-2l-1 7-7 14-5 13-4 2-11-1-5-1-1 2-28-9-1-3 7-1 8 4h7l8 2 9-1 4-8 1-13 5-12v-6l-5-5v-2l-7-2-5-3z" transform="translate(645,425)"/><path fill="#930EC5" d="m0 0 2 1-1 1v7l-2 2-1 8 2 1-1 7-2 2-3 2v3h11l2 5 7 3h7l5 2v2l2 2-8 2h-21l-11-2-6-3-6-7 1-6 8-12 13-17z" transform="translate(897,535)"/><path fill="#FF9D0B" d="m0 0 13 1v5l3 2-1 7v4l-5 3v3l5 1 2 3 4 2h-21l-14-5-6-4v-3h2l-1-4 1-1 2-9h7v-3z" transform="translate(1039,1400)"/><path fill="#376CFD" d="m0 0h1l2 9v3l-1 1-2 11-7 9-9 10-5 4-12 2v20h-1v-51l2 2h9l7-1 9-5 5-6z" transform="translate(728,1340)"/><path fill="#06D85C" d="m0 0h9l8 4 6 7 5 12 2 18 1 1 15 2 12 5 8 6 6 8 1 6-3 6-4 5-11 7-8 2-18 1-1 23-3 7-7 8h-3l6-8 3-8 1-23 2-2h24v-2l8-5 4-2v-2h2l2-5v-6l-4-7-8-4h-9l-5 1h-7v-2l-5-2-2-1-2-5v-21l-4-10-6-5v-2l-5-2-1-1h-12l-4 1 4-4z" transform="translate(141,397)"/><path fill="#FF8F08" d="m0 0h11l2 4 3 3 3 1v-6h1l2 13 7 2v2h-10l-9 1v3l-5 1-2-1-1 9-2 7-5-2-8-10-4-8 1-5 4-2 4-6z" transform="translate(1020,1382)"/><path fill="#FFB109" d="m0 0 3 3 5 13 3 14-1 16-5 15-4 8-9 12-8 8-14 8-12 5-9 1h-16l-14-3 4-1 15 2 18-1 9-3 4-7 5-5 10-2v-2h2l2-4 7-13 2-12 3-12v-3l-2-6v-6h3l3 6 4 1-1-10-5-16z" transform="translate(1230,851)"/><path fill="#A513BE" d="m0 0 1 2-4 16-2 7v12l-8 2h-6l-5 3-9 1-1 13-3 9h-1v-18l2-14v-5l2-6 5-1 3 3 4 1 4-4 5-2 3-1 2-6 4-6z" transform="translate(874,1338)"/><path fill="#05C7D0" d="m0 0h14l14 5 11 7 10 11-2 6-4-4-5-6v-2l-4-2-5-1-4 15-3 4v12l-1 6-2-2-2-4h-1l-2-10-1-2-5-1 2-12 3-7-1-7-1-4-11-1z" transform="translate(603,1304)"/><path fill="#05D764" d="m0 0h10l8 5 5 6 4 11 3 20 22 4 10 5 6 7 3 6v7l-6 9-10 8-8 2-17 2-1 1-1 19-3 8-7 8-9 5h-8l-9-5-6-7-1-6 3 4 3 5 3 3 10 4 9-3 6-4 3-5 2-6 1-20 4-4 17-1 12-6 6-7 2-3v-10l-3-5-4-2v-2h-2v-2l-11-3h-19l-2-2-1-23-3-9-5-6-9-5h-8l-10 10v-3l7-8z" transform="translate(141,159)"/><path fill="#01D2BE" d="m0 0h20v2l3 1 3 7-1 7-2 4-1 9-1 1h-9l-5-5-8-5-2-6 7-11v-2h-6z" transform="translate(591,1303)"/><path fill="#00D29C" d="m0 0 2 1 6 15 11 24 9 16 14 20 4 6-2 5-10-1-8 1 2-6 2-3-5-11-4-8-4-7-3-5-3-9-1-4-5-16-4-11z" transform="translate(263,850)"/><path fill="#1F8AFC" d="m0 0h1v15l-3 9-6 7-8 4-7 1h-9l-1-1v-19l2-1 2 1v2l13-3h6l4-1 2-4z" transform="translate(728,1325)"/><path fill="#06AFF8" d="m0 0 2 1 2 25 3 7 7-2 8-13 5-8 2 1-1 13-4 12-5 5-6 5-9-1-3-4-1 3-1 40h-1v-53l1-30z" transform="translate(696,1274)"/><path fill="#00D1BE" d="m0 0 5 2 2 1v2h3l-1 5-5 15h-2l-1 2-5 2-4 10-2 2-3 5h-2v2l-3-1v-6l4-16 2-9 3-8 5-6z" transform="translate(569,1341)"/><path fill="#FF8E08" d="m0 0h16l2 3-8 2v3l-8 5-1 2-1 14-1 6-1 14-2 12-3 8-1 24h-1v-39l1-49 2-3z" transform="translate(1082,1306)"/><path fill="#5D35F5" d="m0 0 2 3 1 7v11l-2 8-3 3h-2v2l-12 1-8-2-7-6-1-2v-6l6 4 9 1 3-9 4-2h3l3-9z" transform="translate(728,1397)"/><path fill="#C54378" d="m0 0h1v24l-1 13-3 2-4 24-4 1-2 4-10 8-7 1-5 1-1 2h-52v-2l2-1h36l13-1 5-6h2l1-3 4-3 1-3h2v-2l5-4h2l2-5 5-3 3-14 1-2h2v-11z" transform="translate(960,1289)"/><path fill="#00CAC5" d="m0 0 5 2 8 6-2 3 6 8-2 5v12l1 5v8l-4 1v2l-8 1h-3l2-10 1-9-1-7 1-7v-2l-1-6-3-7z" transform="translate(350,975)"/><path fill="#FFC20A" d="m0 0 3 3v2l4 1-1 12 4 6 2 12v19l1 11v27l-3 28-4 23-6 22-6 17-9 20h-2l2-6 7-17 8-23 5-24 3-19 1-13v-44l-3-27-6-27z" transform="translate(1447,674)"/><path fill="#02D87C" d="m0 0h1l1 26 1 61 1 26 1 6 4 8-1 10 1 3 15 3 40 1h25l5-1-3 3-5 1h-60l-11-2-8-5-5-10-1-7-1-74z" transform="translate(342,1282)"/><path fill="#5C36F6" d="m0 0h2v9l2 5-2 2-2 4-3 1v2l-8 6-3 3-5 1-3-1-1 2-1-3-4-2-2-5 11-7 8-6 3-4h2l1-4z" transform="translate(765,1361)"/><path fill="#DC4C55" d="m0 0h2v63h-1l-1-44-2-1-1 16-2 4-10 4-15 2-2 23-1 18-2 1v-43l2-3 10-1 11-8 5-5h2v-8l3-16z" transform="translate(958,1326)"/><path fill="#00D4A1" d="m0 0 1 4-8 19-8 24-6 24-4 26-1 13v33l3 31 6 26 4 14-1 4-4-10-5-18-4-21-2-28v-33l3-27 5-23 8-26 4-12 5-11z" transform="translate(274,625)"/><path fill="#FD6917" d="m0 0h12l7 2-1 4h-5l-6 4-5 3-3 9-4 10h-2l-1 17h-1l-1-7v-34l3-6z" transform="translate(1010,1306)"/><path fill="#07ACFE" d="m0 0h2v8l-4 18-4 5-10 3-5-2-5-6-1-8h6v2l10-2 3-3 6-12z" transform="translate(651,1389)"/><path fill="#FF8108" d="m0 0h3v2h5l5 4 1 9v17l-1 2h-6l-3 2-4-1-1-1 1-7 3-4-1-9-2-10z" transform="translate(1132,861)"/><path fill="#2C78FC" d="m0 0h1l2 10h-2l-2 6-5 6-8 5-7 6-11 6-1-2v-17h10l7-1 9-5 5-6z" transform="translate(728,1340)"/><path fill="#C84B71" d="m0 0h1l-1 7-5 10-4 14-1 3-2 7-2 6v18l-3-3-2-9v-18l5-15 9-16z" transform="translate(991,711)"/><path fill="#C33689" d="m0 0h1v39l-3 6-8 3h-13l-5-3-2-4 5 2h4v-9l4-1 1 3 3-1h4l3-6h2l3-4z" transform="translate(871,1382)"/><path fill="#00D29B" d="m0 0h2l7 10 8 6 8 7 7 5 4 2 2 4h-2v5 4l2 5h-3l-12-14-14-18-9-14z" transform="translate(239,937)"/><path fill="#00CAC4" d="m0 0h20v2l3 1 3 7-1 7-2 4-1 9-1 1h-6l-1-9v-11l1-4-2-3-3-1-12-1z" transform="translate(591,1303)"/><path fill="#950BC4" d="m0 0 2 1-1 1v7l-2 2-1 8 2 1-1 7-2 2-3 2-1 3-4-2-8-3v-3l8-11z" transform="translate(897,535)"/><path fill="#01C4DE" d="m0 0h5l5 4 4 6-5 3-8 11-6 7-2-3v-8l4-7 2-10z" transform="translate(631,1317)"/><path fill="#00D39F" d="m0 0 2 3-3 5-10 2-3 1-2 7-6 11-2 11-2 1-2 40h-1v-23l1-31 3-8 6-7 12-9z" transform="translate(573,1308)"/><path fill="#FFC10A" d="m0 0 2 3 7 16 8 24 8 30 4 22 2 23v55h-1l-1-44-1-16-3-26-5-23-6-23-11-30-3-7z" transform="translate(1488,608)"/><path fill="#8308E0" d="m0 0 11 3 6 6v5h-6l-1 3h-5-3l-6-7 1-6z" transform="translate(877,563)"/><path fill="#00D791" d="m0 0 4 5 2 5 15 3 40 1h25l5-1-3 3-5 1h-60l-11-2-8-5-4-7z" transform="translate(345,1412)"/><path fill="#03D775" d="m0 0h6l-2 2-23 3-1 1-1 19-3 8-7 8-9 5h-8l-9-5-6-7-1-6 3 4 3 5 3 3 10 4 9-3 6-4 3-5 2-6 1-20 4-4 17-1z" transform="translate(190,246)"/><path fill="#0BA7ED" d="m0 0 7 3 11 11 9 15 4 10v6l-2 2-3-9-5-10-13-19v-2l-5-2-3-2z" transform="translate(566,568)"/><path fill="#03D780" d="m0 0 8 2 3 1v2h8l3 1v2h9l5 3 2 5 1 22h2l3 5 4 4v2l5 1h8l7-1-1 2-6 2-10-1-9-6-4-7-3-17-1-10-18-4-15-6z" transform="translate(88,477)"/><path fill="#02D780" d="m0 0 2 1-8 4-18 2h-5l-1 23-3 7-7 8h-3l6-8 3-8 1-23 2-2 24-1z" transform="translate(199,480)"/><path fill="#A414BE" d="m0 0 5 2 1 4h2v8l-6 2-3-1v-2h-8l-1-4h-2v-4l4-2v2h6z" transform="translate(821,924)"/><path fill="#06B1EE" d="m0 0h4v2l5 2 6 4 13 5 6 2-3 4-8-1-16-8-8-7z" transform="translate(487,933)"/><path fill="#04D868" d="m0 0h9l8 4 6 7 5 12 2 18 1 1 15 2 2 2-19-1-1-1-1-20h-2l-4-10-6-5v-2l-5-2-1-1h-12l-4 1 4-4z" transform="translate(141,397)"/><path fill="#0DA1F6" d="m0 0h1l2 10 1 17v33l-3 3-1-7z" transform="translate(620,1343)"/><path fill="#FFC70B" d="m0 0 3 3v2l4 1-1 12 4 6 2 12-1 19-2 2-3-27-6-27z" transform="translate(1447,674)"/><path fill="#00D2AF" d="m0 0 27 1v2h5l1 2-7-1h-22l-2 1-1 3-1 82h-1v-80h-2v-7z" transform="translate(584,1333)"/><path fill="#B519B1" d="m0 0h2l2 6v7l-5 11-4 9-2-2v-7l1-7h2l2-14z" transform="translate(875,1339)"/><path fill="#FF8508" d="m0 0 4 1v2l-4 1-2 7-1 19-2 62h-1v-39l1-49 2-3z" transform="translate(1079,1307)"/><path fill="#00D299" d="m0 0h2l-3 19-4 12h-3l-2-9 4-10 2-9v-2z" transform="translate(287,937)"/><path fill="#D8564F" d="m0 0 4 1-2 2h-4l-3 43-2 1v-43l2-3z" transform="translate(930,1365)"/><path fill="#F07427" d="m0 0h12l7 2v2h-17l-7 2-2 5-2 31h-1v-34l3-6z" transform="translate(1010,1306)"/><path fill="#00D49E" d="m0 0 2 1 3 14 1 9h20l8 4 7 7-1 2-5-5-11-5h-19l-3-2-1-16z" transform="translate(401,279)"/><path fill="#973DA8" d="m0 0 2 1v3l-1 2h-2l-1 7-1 4-1 43h-1l-1-18v-34l4-6z" transform="translate(928,1275)"/><path fill="#00D3A3" d="m0 0 2 1-9 8-8 7-17 16-10 11-6 8h-2l2-4 8-10 29-29z" transform="translate(356,524)"/><path fill="#FF8908" d="m0 0h14l5 1v2l-7 2-3 2-6 1-5-3-6-1 1-3z" transform="translate(1165,816)"/><path fill="#00D4A3" d="m0 0 2 1-6 4-3 1-21 2-2 7-1 13-3 9-2 1 2-12 1-14 2-6 1-1 19-1 10-3z" transform="translate(435,342)"/><path fill="#00CBC2" d="m0 0 6 1 10 2-1 3 1 3-2 2-3-1v2l-4-2-9-6v-3z" transform="translate(328,1028)"/><path fill="#03D87B" d="m0 0h1l-1 18v8h-2l-1 4-5 2h-23l-8 2 3-3 6-2h23l4-4 1-17z" transform="translate(127,412)"/><path fill="#FFC00A" d="m0 0 15 6 14 2h27l-3 2-4 1h-23l-14-3-12-5z" transform="translate(1166,1421)"/><path fill="#00D5A1" d="m0 0 9 12 8 5 18 2 6 3 1 2 1 20-2-3-2-17-3-2-18-2-8-4-8-9-2-4z" transform="translate(317,328)"/><path fill="#FFBF0A" d="m0 0 1 3-8 16-12 19-2 4h-2l-2 5-9 10v-3l10-13 11-17z" transform="translate(1429,877)"/><path fill="#07D852" d="m0 0h1l1 26 1 6 4 8-1 5-2 3-2-5h-2z" transform="translate(344,1369)"/><path fill="#00D4A6" d="m0 0h19l25 2v1h-55l-11 1 2-2 4-1z" transform="translate(526,401)"/><path fill="#05D865" d="m0 0h10l8 5 4 5-1 3-8-7-6-3h-8l-10 10v-3l7-8z" transform="translate(141,159)"/><path fill="#F9701C" d="m0 0h1l3 14 1 9 2 5h-3l-6-15v-8z" transform="translate(1105,627)"/><path fill="#EF7C2A" d="m0 0h38l4 2-33 1h-16l-3-2z" transform="translate(1152,402)"/><path fill="#00D59B" d="m0 0 1 3-11 16-9 15-6 11-2 1 1-5 10-18 11-16z" transform="translate(303,577)"/><path fill="#02D786" d="m0 0h1v6h2v9h2l3 5 4 4v2l5 1h8l7-1-1 2-6 2-10-1-9-6-4-7-2-9z" transform="translate(124,500)"/><path fill="#EC7931" d="m0 0 8 2 18 4h21l-4 2-7 1h-9l-17-3-10-5z" transform="translate(1011,816)"/><path fill="#D64B57" d="m0 0h2v63h-1l-1-55-3 1 1-7z" transform="translate(958,1326)"/><path fill="#9423C7" d="m0 0h2v3h5l1 1v6l-3 3-4-1-3-4 1-6z" transform="translate(875,565)"/><path fill="#F0692A" d="m0 0h3l-1 3-3 3-5 1-1 4-3 5-5 7h-2l-1 6h-1l1-7 7-11 6-7z" transform="translate(1129,571)"/><path fill="#FFA00B" d="m0 0h2v7l-3 12-2 2h-2v-2l-2-1 4-9z" transform="translate(1238,629)"/><path fill="#8937C5" d="m0 0 2 1-9 9-7 8-19 19-2-1 17-17 7-8z" transform="translate(938,491)"/><path fill="#AB30A1" d="m0 0h1v15l-1 26-2-1v-26l1-11z" transform="translate(871,1367)"/><path fill="#00D59D" d="m0 0h2l-2 10-5 24-1 7-2-3 1-10 6-25z" transform="translate(256,673)"/><path fill="#00D599" d="m0 0 6 9 10 6 2 1h8l6-2v2l-6 3h-8l-10-5-5-5-3-4z" transform="translate(360,373)"/><path fill="#366EFB" d="m0 0h2l-1 35-2 7-3 3-3-1 5-5 1-6v-11l-1-16z" transform="translate(731,1385)"/><path fill="#00D891" d="m0 0h1l3 12 4 8 3 3 6 2h12l-1 2-4 1h-8l-8-4-5-7-3-10z" transform="translate(471,1268)"/><path fill="#04D76C" d="m0 0 10 1 10 5 6 7v2l-4-2-5-3v-2h-2v-2l-11-3v-2z" transform="translate(183,204)"/><path fill="#8229CC" d="m0 0 3 3 7 17 6 19-1 3-2-1-5-18-6-17z" transform="translate(852,607)"/><path fill="#03D778" d="m0 0 7 1 18 3 4 3-1 2-3-2-19-2-6-4z" transform="translate(93,243)"/><path fill="#EE672D" d="m0 0 5 2 4 12v7h-2l-4-12v-2h-2z" transform="translate(1101,730)"/><path fill="#00D794" d="m0 0h6l-2 2-23 3-1 1-1 19h-1l-1-16 3-7 17-1z" transform="translate(190,246)"/><path fill="#FF9709" d="m0 0 5 2 16 10 8 6v2l-4-2-15-9-3-3-7-4z" transform="translate(1347,452)"/><path fill="#00D59D" d="m0 0 2 1-9 8-8 7-7 6v-3l11-11z" transform="translate(356,524)"/><path fill="#FFC20A" d="m0 0 6 2 10 7 8 8 6 10-1 2-6-9-7-8-8-6-7-3z" transform="translate(1229,1308)"/><path fill="#F26C26" d="m0 0 1 2-1 3-2 31h-1v-34z" transform="translate(1e3 1312)"/><path fill="#FFC20A" d="m0 0h2l4 15 1 13-2 5h-1v-11l-3-16z" transform="translate(1222,1345)"/><path fill="#00D39F" d="m0 0 5 1h6v2l-16 1-8 1-4-2z" transform="translate(502,403)"/><path fill="#00D990" d="m0 0 2 1 2 18 1 1 15 2 2 2-19-1-1-1z" transform="translate(167,419)"/><path fill="#9D3CA7" d="m0 0 2 1v3l-1 2h-2l-1 7-2 1-2-1 1-7z" transform="translate(928,1275)"/><path fill="#8F0FC8" d="m0 0 3 3 1 9 2 6h-4l-2-5z" transform="translate(817,719)"/><path fill="#EC702F" d="m0 0 5 2 2 5 5 2v2l-7-1-5-5-2-4z" transform="translate(926,1419)"/><path fill="#F57E1F" d="m0 0h1v10l-4 13-3 6h-2l3-9 3-10 1-1z" transform="translate(1111,753)"/><path fill="#01D889" d="m0 0h7l6 2-3 1h-13l-5 3-5 5-2 3 1-6 7-6z" transform="translate(487,1254)"/><path fill="#D35F5C" d="m0 0 3 3 12 24-4-2-8-15-3-7z" transform="translate(911,878)"/><path fill="#00D2A4" d="m0 0h9l8 4 7 7-1 2-5-5-11-5v-2h-7z" transform="translate(418,303)"/><path fill="#06D75B" d="m0 0h2l2 4-1 5-2 3-2-5h-2v-6l3 1z" transform="translate(347,1405)"/><path fill="#FD8C0C" d="m0 0h16l2 3h-17l-2-2z" transform="translate(1082,1306)"/><path fill="#00D69D" d="m0 0h11l4 4 1 20-2-3-2-17-3-2-9-1z" transform="translate(344,348)"/><path fill="#8324CE" d="m0 0 4 1 2 11h-2v6l-2-4-2-10z" transform="translate(831,822)"/><path fill="#FE7609" d="m0 0 5 1 1 5-6 2-3-3 1-4z" transform="translate(1184,560)"/><path fill="#8848B0" d="m0 0 3 2 1 10-10 13-1-3 7-9 2-10h-2z" transform="translate(827,927)"/><path fill="#812AC6" d="m0 0 5 5 5 6 1 6-3-3-6-7v-3h-2z" transform="translate(788,1392)"/><path fill="#00D49E" d="m0 0 2 1 6 15v3l-3-1-4-11z" transform="translate(263,850)"/><path fill="#0AABE9" d="m0 0h19l-2 2-14 1-3-1z" transform="translate(696,1264)"/><path fill="#FF9708" d="m0 0h1v18l-1 5h-2v-14z" transform="translate(1104,609)"/><path fill="#05D861" d="m0 0 4 1 3 6v13h-1l-4-18z" transform="translate(119,486)"/><path fill="#8F24CB" d="m0 0 2 1-1 1v7l-7 3h-3z" transform="translate(897,535)"/><path fill="#0CA1F7" d="m0 0 4 1 1 11-3 1-2-10z" transform="translate(652,1333)"/><path fill="#FFC30A" d="m0 0 3 1-19 11v-3l7-4z" transform="translate(1355,1047)"/><path fill="#00D5A1" d="m0 0 4 5 2 5 7 2 4 3-7-1-6-4-4-7z" transform="translate(345,1412)"/><path fill="#3174FA" d="m0 0h6v2h-4l-1 8-3 1 1-10z" transform="translate(598,821)"/><path fill="#00D49C" d="m0 0h1l1 9v10h-2l-1-7v-9z" transform="translate(248,782)"/><path fill="#FFC70B" d="m0 0h2l1 2v23h-1l-1-16z" transform="translate(1515,712)"/><path fill="#00D3A1" d="m0 0 3 3 2 8-4 7-1-2 1-3v-9z" transform="translate(443,317)"/><path fill="#E66D3D" d="m0 0 8 1 8 3v1l-9-1-6-2z" transform="translate(1054,689)"/><path fill="#07D853" d="m0 0h13v1l-11 1-2 3-1 10h-1v-13z" transform="translate(168,484)"/><path fill="#2492D1" d="m0 0h2l-1 15h-2l-1-9z" transform="translate(731,1385)"/><path fill="#9907C2" d="m0 0h5l1 1v6h-3v-3l-3-1z" transform="translate(877,568)"/><path fill="#D14B59" d="m0 0v3l-6 6-6 1 5-5z" transform="translate(946,1357)"/><path fill="#04D86B" d="m0 0 2 3 3 8-1 4-3-4-2-9z" transform="translate(163,170)"/><path fill="#1E91F1" d="m0 0 3 1-5 5-4 2-1-3h2v-2z" transform="translate(570,936)"/><path fill="#F27326" d="m0 0h3l-1 3-3 3-6 3-2-1z" transform="translate(1129,571)"/><path fill="#00D797" d="m0 0 2 1 2 18 1 3h-3z" transform="translate(167,419)"/><path fill="#FF9709" d="m0 0h5l-1 4-12-1 3-2z" transform="translate(1068,1399)"/><path fill="#00D3A8" d="m0 0h1l1 10 9 2v1h-9v-2l-2-1z" transform="translate(382,1386)"/><path fill="#DB6547" d="m0 0 8 1v1l-16 2-1-2z" transform="translate(1031,687)"/><path fill="#00D59F" d="m0 0 6 9 5 5-4-1-5-5-2-3z" transform="translate(360,373)"/><path fill="#FF8E08" d="m0 0h2v9l-4-2 1-5z" transform="translate(1032,1365)"/><path fill="#00D5A1" d="m0 0h6l1 2-9 1-5 4 1-5z" transform="translate(480,1305)"/><path fill="#04CCBF" d="m0 0 4 1 3 2v2l4 1-3 1-8-4z" transform="translate(378,1061)"/><path fill="#F36E25" d="m0 0h2l-2 5-5 7-1-3 2-4h2z" transform="translate(1101,784)"/><path fill="#9A07C1" d="m0 0 2 1 1 5-4 3-1-7z" transform="translate(899,535)"/><path fill="#A533A6" d="m0 0 5 1 3 4-2 2-3-2-3-1z" transform="translate(952,1279)"/><path fill="#FF9D0C" d="m0 0h8l3 2-3 2-2 1-3-1z" transform="translate(1163,1265)"/><path fill="#CF4C5E" d="m0 0m-1 1m-1 1m-3 1h3l4 7v3l-7-7z" transform="translate(916,980)"/><path fill="#FFA20B" d="m0 0 4 1 1 4-5 1-1-4z" transform="translate(1204,678)"/><path fill="#02D880" d="m0 0 2 1-7 6-6 2-2-2 10-4z" transform="translate(161,282)"/><path fill="#05DF59" d="m0 0 3 1-10 10v-3z" transform="translate(137,161)"/><path fill="#875F9E" d="m0 0h2l6 10-1 3-3-4-4-7z" transform="translate(865,922)"/><path fill="#02D782" d="m0 0 2 2 6 12-4-2-4-7z" transform="translate(80,463)"/></svg>